# xmcd
#
# Track frame offsets:
#	151
#	19182
#	33861
#	52812
#	66327
#	88726
#	100009
#	120962
#	138883
#	154594
#	172203
#	193226
#	210653
#	223370
#	239453
#	257096
#	274625
#	294636
#	306797
#	323010
#
# Disc length: 4527 seconds
#
# Revision: 0
# Processed by: cddbd v1.5.1PL2 Copyright (c) Steve Scherf et al.
# Submitted via: EasyCDDAExtractor 9.0.0.1
#
DISCID=2311ad14
DTITLE=Nas - Hits and Unreleased Vol. 1
DYEAR=2003
DGENRE=Hip-Hop
TTITLE0=Halftime
TTITLE1=It Ain't Hard To Tell
TTITLE2=The World Is Yours (Tip Remix)
TTITLE3=Life's A Bitch
TTITLE4=One Love
TTITLE5=Freestyle '96
TTITLE6=If I Ruled The World (Featuring Lauren Hill)
TTITLE7=Street Dreams
TTITLE8=Escobar '97
TTITLE9=Nas Is Like
TTITLE10=Hate Me Now (Featuring P. Diddy)
TTITLE11=You Won't See Me Tonight (Featuring Aaliyah)
TTITLE12=Blaze A 50
TTITLE13=Stay Alive
TTITLE14=Drunk By Myself
TTITLE15=Nastradamus
TTITLE16=You Owe Me (Featuring Ginuwine)
TTITLE17=Hustlers and Killers
TTITLE18=Salute Me (The General)
TTITLE19=Got Ur Self A Gun
EXTD=
EXTT0=
EXTT1=
EXTT2=
EXTT3=
EXTT4=
EXTT5=
EXTT6=
EXTT7=
EXTT8=
EXTT9=
EXTT10=
EXTT11=
EXTT12=
EXTT13=
EXTT14=
EXTT15=
EXTT16=
EXTT17=
EXTT18=
EXTT19=
PLAYORDER=
